0
SECTION
2
HEADER
9
$INSUNITS
70
4
9
$ACADVER
1
AC1014
9
$HANDSEED
5
FFFF
0
ENDSEC
0
SECTION
2
TABLES
0
TABLE
2
VPORT
5
8
100
AcDbSymbolTable
0
ENDTAB
0
TABLE
2
LTYPE
5
5
100
AcDbSymbolTable
0
LTYPE
5
14
100
AcDbSymbolTableRecord
100
AcDbLinetypeTableRecord
2
BYBLOCK
70
0
0
LTYPE
5
15
100
AcDbSymbolTableRecord
100
AcDbLinetypeTableRecord
2
BYLAYER
70
0
0
LTYPE
5
16
100
AcDbSymbolTableRecord
100
AcDbLinetypeTableRecord
2
DASHED
70
0
3
Dashed __ __ __ __ __ __ __ __ __ __ __ __ __ _
72
65
73
2
40
0.75
49
0.5
74
0
49
-0.25
74
0
0
ENDTAB
0
TABLE
2
LAYER
5
2
100
AcDbSymbolTable
70
3
0
LAYER
5
50
100
AcDbSymbolTableRecord
100
AcDbLayerTableRecord
2
1
70
0
62
7
6
DASHED
0
LAYER
5
51
100
AcDbSymbolTableRecord
100
AcDbLayerTableRecord
2
0
70
0
62
7
6
CONTINUOUS
0
ENDTAB
0
TABLE
2
STYLE
5
3
100
AcDbSymbolTable
70
1
0
STYLE
5
11
100
AcDbSymbolTableRecord
100
AcDbTextStyleTableRecord
2
STANDARD
70
0
0
ENDTAB
0
TABLE
2
VIEW
5
6
100
AcDbSymbolTable
70
0
0
ENDTAB
0
TABLE
2
UCS
5
7
100
AcDbSymbolTable
70
0
0
ENDTAB
0
TABLE
2
APPID
5
9
100
AcDbSymbolTable
70
2
0
APPID
5
12
100
AcDbSymbolTableRecord
100
AcDbRegAppTableRecord
2
ACAD
70
0
0
ENDTAB
0
TABLE
2
DIMSTYLE
5
A
100
AcDbSymbolTable
70
1
0
ENDTAB
0
TABLE
2
BLOCK_RECORD
5
1
100
AcDbSymbolTable
70
1
0
BLOCK_RECORD
5
1F
100
AcDbSymbolTableRecord
100
AcDbBlockTableRecord
2
*MODEL_SPACE
0
BLOCK_RECORD
5
1B
100
AcDbSymbolTableRecord
100
AcDbBlockTableRecord
2
*PAPER_SPACE
0
ENDTAB
0
ENDSEC
0
SECTION
2
BLOCKS
0
BLOCK
5
20
100
AcDbEntity
100
AcDbBlockBegin
2
*MODEL_SPACE
0
ENDBLK
5
21
100
AcDbEntity
100
AcDbBlockEnd
0
BLOCK
5
1C
100
AcDbEntity
100
AcDbBlockBegin
2
*PAPER_SPACE
0
ENDBLK
5
1D
100
AcDbEntity
100
AcDbBlockEnd
0
ENDSEC
0
SECTION
2
ENTITIES
0
CIRCLE
5
100
100
AcDbEntity
8
0
100
AcDbCircle
10
116.86528996785482
20
-296.90795089600181
30
0
40
1.6999999999999815
210
0
220
0
230
1
0
CIRCLE
5
101
100
AcDbEntity
8
0
100
AcDbCircle
10
243.96054976582039
20
-87.569171166748248
30
0
40
1.7000000000000171
210
0
220
0
230
1
0
CIRCLE
5
102
100
AcDbEntity
8
0
100
AcDbCircle
10
58.865757981017026
20
-12.072787569168391
30
0
40
1.6999999999999993
210
0
220
0
230
1
0
CIRCLE
5
103
100
AcDbEntity
8
0
100
AcDbCircle
10
-68.033559949452837
20
-216.77841967242722
30
0
40
1.7000000000000171
210
0
220
0
230
1
0
CIRCLE
5
104
100
AcDbEntity
8
0
100
AcDbCircle
10
-68.033559949348415
20
-92.202318912138495
30
0
40
1.7000000000000082
210
0
220
0
230
1
0
CIRCLE
5
105
100
AcDbEntity
8
0
100
AcDbCircle
10
117.16067387781776
20
-12.07278756076871
30
0
40
1.6999999999999993
210
0
220
0
230
1
0
CIRCLE
5
106
100
AcDbEntity
8
0
100
AcDbCircle
10
243.96116066977669
20
-206.67782587951262
30
0
40
1.7000000000000171
210
0
220
0
230
1
0
CIRCLE
5
107
100
AcDbEntity
8
0
100
AcDbCircle
10
58.570374071054076
20
-296.90795090440156
30
0
40
1.6999999999999904
210
0
220
0
230
1
0
CIRCLE
5
108
100
AcDbEntity
8
0
100
AcDbCircle
10
142.97493389161059
20
-295.18357389086242
30
0
40
1.6999999999999993
210
0
220
0
230
1
0
CIRCLE
5
109
100
AcDbEntity
8
0
100
AcDbCircle
10
201.75229290666394
20
-13.796944768164856
30
0
40
1.7000000000000171
210
0
220
0
230
1
0
CIRCLE
5
110
100
AcDbEntity
8
0
100
AcDbCircle
10
33.05743815486386
20
-13.796946491210136
30
0
40
1.6999999999999993
210
0
220
0
230
1
0
CIRCLE
5
111
100
AcDbEntity
8
0
100
AcDbCircle
10
-25.919773034271198
20
-295.18379369700881
30
0
40
1.6999999999999993
210
0
220
0
230
1
0
CIRCLE
5
112
100
AcDbEntity
8
0
100
AcDbCircle
10
-25.919773034269006
20
-13.79694476816276
30
0
40
1.6999999999999993
210
0
220
0
230
1
0
CIRCLE
5
113
100
AcDbEntity
8
0
100
AcDbCircle
10
142.77508171753109
20
-13.796946491212125
30
0
40
1.6999999999999993
210
0
220
0
230
1
0
CIRCLE
5
114
100
AcDbEntity
8
0
100
AcDbCircle
10
201.95214508074338
20
-295.1835756139098
30
0
40
1.6999999999999815
210
0
220
0
230
1
0
CIRCLE
5
115
100
AcDbEntity
8
0
100
AcDbCircle
10
33.057438154861636
20
-295.18379197396143
30
0
40
1.6999999999999993
210
0
220
0
230
1
0
LWPOLYLINE
5
116
100
AcDbEntity
8
0
100
AcDbPolyline
90
27
70
1
43
0.0
10
248.94892288673859
20
-52.851547294618655
10
248.94892288673859
20
-244.88633241523016
42
-0.19891236737965798
10
248.07024323029825
20
-247.00765275878979
10
235.82760254317901
20
-259.25029344590905
42
-0.19891236737965798
10
233.70628219961935
20
-260.12897310234939
10
226.8504649653141
20
-260.12897310234939
42
0.41421356237309553
10
206.35046496531405
20
-280.62897310234939
10
206.35046496531407
20
-296.40288614922321
42
-0.41421356237309759
10
202.3504649653141
20
-300.40288614922321
10
-26.359861533142244
20
-300.40288614922315
42
-0.41115836758137264
10
-30.318092918845039
20
-296.40310423231074
10
-30.318092918845039
20
-280.62919118545864
42
0.41421356237309509
10
-50.818092918845039
20
-260.12919118545864
10
-68.922256523009864
20
-260.12919118545858
42
-0.41421356237309509
10
-72.922256523009864
20
-256.12919118545858
10
-72.922256523007803
20
-52.851547279713103
42
-0.4142135623730937
10
-68.922256523007803
20
-48.851547279713103
10
-50.818092918842837
20
-48.851547279713117
42
0.41421356237309509
10
-30.318092918842847
20
-28.351547279713145
10
-30.318092918842861
20
-12.577645567563991
42
-0.41421356237309437
10
-26.318092918842861
20
-8.5776455675639909
10
202.15061277632967
20
-8.5776455675543026
42
-0.41421356237309537
10
206.15061277632964
20
-12.577645567554292
10
206.15061277632964
20
-28.351547279717497
42
0.41421356237309509
10
226.65061279123077
20
-48.851547294618655
10
244.74907071265906
20
-48.851547294618669
42
-0.41421356237309509
10
248.74907071265906
20
-52.851547294618655
0
ENDSEC
0
SECTION
2
OBJECTS
0
DICTIONARY
5
C
100
AcDbDictionary
3
ACAD_GROUP
350
D
3
ACAD_MLINESTYLE
350
17
0
DICTIONARY
5
D
100
AcDbDictionary
0
DICTIONARY
5
1A
330
C
100
AcDbDictionary
0
DICTIONARY
5
17
100
AcDbDictionary
0
ENDSEC
0
EOF
