0
SECTION
2
HEADER
9
$INSUNITS
70
4
9
$ACADVER
1
AC1014
9
$HANDSEED
5
FFFF
0
ENDSEC
0
SECTION
2
TABLES
0
TABLE
2
VPORT
5
8
100
AcDbSymbolTable
0
ENDTAB
0
TABLE
2
LTYPE
5
5
100
AcDbSymbolTable
0
LTYPE
5
14
100
AcDbSymbolTableRecord
100
AcDbLinetypeTableRecord
2
BYBLOCK
70
0
0
LTYPE
5
15
100
AcDbSymbolTableRecord
100
AcDbLinetypeTableRecord
2
BYLAYER
70
0
0
LTYPE
5
16
100
AcDbSymbolTableRecord
100
AcDbLinetypeTableRecord
2
DASHED
70
0
3
Dashed __ __ __ __ __ __ __ __ __ __ __ __ __ _
72
65
73
2
40
0.75
49
0.5
74
0
49
-0.25
74
0
0
ENDTAB
0
TABLE
2
LAYER
5
2
100
AcDbSymbolTable
70
3
0
LAYER
5
50
100
AcDbSymbolTableRecord
100
AcDbLayerTableRecord
2
1
70
0
62
7
6
DASHED
0
LAYER
5
51
100
AcDbSymbolTableRecord
100
AcDbLayerTableRecord
2
0
70
0
62
7
6
CONTINUOUS
0
ENDTAB
0
TABLE
2
STYLE
5
3
100
AcDbSymbolTable
70
1
0
STYLE
5
11
100
AcDbSymbolTableRecord
100
AcDbTextStyleTableRecord
2
STANDARD
70
0
0
ENDTAB
0
TABLE
2
VIEW
5
6
100
AcDbSymbolTable
70
0
0
ENDTAB
0
TABLE
2
UCS
5
7
100
AcDbSymbolTable
70
0
0
ENDTAB
0
TABLE
2
APPID
5
9
100
AcDbSymbolTable
70
2
0
APPID
5
12
100
AcDbSymbolTableRecord
100
AcDbRegAppTableRecord
2
ACAD
70
0
0
ENDTAB
0
TABLE
2
DIMSTYLE
5
A
100
AcDbSymbolTable
70
1
0
ENDTAB
0
TABLE
2
BLOCK_RECORD
5
1
100
AcDbSymbolTable
70
1
0
BLOCK_RECORD
5
1F
100
AcDbSymbolTableRecord
100
AcDbBlockTableRecord
2
*MODEL_SPACE
0
BLOCK_RECORD
5
1B
100
AcDbSymbolTableRecord
100
AcDbBlockTableRecord
2
*PAPER_SPACE
0
ENDTAB
0
ENDSEC
0
SECTION
2
BLOCKS
0
BLOCK
5
20
100
AcDbEntity
100
AcDbBlockBegin
2
*MODEL_SPACE
0
ENDBLK
5
21
100
AcDbEntity
100
AcDbBlockEnd
0
BLOCK
5
1C
100
AcDbEntity
100
AcDbBlockBegin
2
*PAPER_SPACE
0
ENDBLK
5
1D
100
AcDbEntity
100
AcDbBlockEnd
0
ENDSEC
0
SECTION
2
ENTITIES
0
LWPOLYLINE
5
100
100
AcDbEntity
8
0
100
AcDbPolyline
90
26
70
1
43
0.0
10
-245.47775118977481
20
-268.66952384467567
42
0.19891236737965801
10
-243.35643084621518
20
-269.54820350111606
10
-236.50061361190984
20
-269.54820350111606
42
-0.41421356237309509
10
-216.00061361190984
20
-290.04820350111606
10
-216.0006136119099
20
-305.82211654798982
42
0.41421356237309509
10
-212.0006136119099
20
-309.82211654798982
10
36.418086228480654
20
-309.82211654798982
42
0.41421356237309537
10
40.418086228480661
20
-305.82211654798982
10
40.418086228480654
20
-290.04820350113778
42
-0.41421356237309509
10
60.918086228480661
20
-269.54820350113772
10
79.022249832645485
20
-269.54820350113778
42
0.4142135623730957
10
83.022249832645514
20
-265.54820350113778
10
83.0222498326455
20
-42.85133144239623
42
0.41421356237309509
10
79.0222498326455
20
-38.85133144239623
10
60.918086228480547
20
-38.85133144239623
42
-0.41421356237309509
10
40.418086228480554
20
-18.351331442396237
10
40.418086228480561
20
-2.5774297302471183
42
0.4142135623730932
10
36.41808622848059
20
1.4225702697528833
10
-212.00061359700493
20
1.4225702697528853
42
0.41421356237309515
10
-216.0006135970049
20
-2.5774297302471183
10
-216.0006135970049
20
-18.351331442410327
42
-0.41421356237309548
10
-236.50061361190609
20
-38.851331457311474
10
-254.59907153333435
20
-38.851331457311474
42
0.41421356237309509
10
-258.59907153333438
20
-42.851331457311481
10
-258.59907153333438
20
-254.30556281399677
42
0.19891236737965798
10
-257.72039187689404
20
-256.42688315755646
0
CIRCLE
5
101
100
AcDbEntity
8
0
100
AcDbCircle
10
-22.957444845225972
20
-3.7967306538943291
30
0
40
1.6999999999999993
210
0
220
0
230
1
0
CIRCLE
5
102
100
AcDbEntity
8
0
100
AcDbCircle
10
-211.60229372733914
20
-3.7967289308576646
30
0
40
1.7000000000000171
210
0
220
0
230
1
0
CIRCLE
5
103
100
AcDbEntity
8
0
100
AcDbCircle
10
-152.62508253820624
20
-304.60280428963364
30
0
40
1.7000000000000171
210
0
220
0
230
1
0
CIRCLE
5
104
100
AcDbEntity
8
0
100
AcDbCircle
10
36.019766343906937
20
-304.60280601268801
30
0
40
1.7000000000000171
210
0
220
0
230
1
0
CIRCLE
5
105
100
AcDbEntity
8
0
100
AcDbCircle
10
-22.957444845225851
20
-304.60280428963966
30
0
40
1.7000000000000171
210
0
220
0
230
1
0
CIRCLE
5
106
100
AcDbEntity
8
0
100
AcDbCircle
10
-211.60229372733906
20
-304.60280601267647
30
0
40
1.7000000000000171
210
0
220
0
230
1
0
CIRCLE
5
107
100
AcDbEntity
8
0
100
AcDbCircle
10
-152.62508253820639
20
-3.7967306539004753
30
0
40
1.6999999999999993
210
0
220
0
230
1
0
CIRCLE
5
108
100
AcDbEntity
8
0
100
AcDbCircle
10
36.019766343906824
20
-3.7967289308459407
30
0
40
1.6999999999999993
210
0
220
0
230
1
0
CIRCLE
5
109
100
AcDbEntity
8
0
100
AcDbCircle
10
-58.758358201479425
20
-2.0980151793368229
30
0
40
1.6999999999999993
210
0
220
0
230
1
0
CIRCLE
5
110
100
AcDbEntity
8
0
100
AcDbCircle
10
-253.61098314022195
20
-86.778210277255923
30
0
40
1.7000000000000171
210
0
220
0
230
1
0
CIRCLE
5
111
100
AcDbEntity
8
0
100
AcDbCircle
10
-117.05327416706162
20
-306.30151808204226
30
0
40
1.7000000000000171
210
0
220
0
230
1
0
CIRCLE
5
112
100
AcDbEntity
8
0
100
AcDbCircle
10
78.033556288642686
20
-216.48789203302226
30
0
40
1.6999999999999904
210
0
220
0
230
1
0
CIRCLE
5
113
100
AcDbEntity
8
0
100
AcDbCircle
10
-58.758358201479297
20
-306.30151976419717
30
0
40
1.7000000000000171
210
0
220
0
230
1
0
CIRCLE
5
114
100
AcDbEntity
8
0
100
AcDbCircle
10
-253.61038432515397
20
-216.44286504069117
30
0
40
1.7000000000000171
210
0
220
0
230
1
0
CIRCLE
5
115
100
AcDbEntity
8
0
100
AcDbCircle
10
-117.05327416706174
20
-2.0980168614918249
30
0
40
1.6999999999999993
210
0
220
0
230
1
0
CIRCLE
5
116
100
AcDbEntity
8
0
100
AcDbCircle
10
78.033556288644718
20
-91.911791272733652
30
0
40
1.6999999999999993
210
0
220
0
230
1
0
ENDSEC
0
SECTION
2
OBJECTS
0
DICTIONARY
5
C
100
AcDbDictionary
3
ACAD_GROUP
350
D
3
ACAD_MLINESTYLE
350
17
0
DICTIONARY
5
D
100
AcDbDictionary
0
DICTIONARY
5
1A
330
C
100
AcDbDictionary
0
DICTIONARY
5
17
100
AcDbDictionary
0
ENDSEC
0
EOF
